<svg width="789" height="652" viewBox="0 0 789 652" fill="none" xmlns="http://www.w3.org/2000/svg">
<g clip-path="url(#clip0)">
<path d="M0 210.447L8.716 237.242L143.438 651.413L788.342 440.966L653.619 26.795L644.904 0L0 210.447Z" fill="url(#paint0_linear)"/>
<path d="M637.102 10.5697L13.2147 214.157L21.4957 239.534L645.383 35.9464L637.102 10.5697Z" fill="#F5F5F5"/>
<path d="M645.471 36.2418L21.3896 239.244L149.021 631.616L773.103 428.614L645.471 36.2418Z" fill="white"/>
<path d="M39.222 223.152C39.9953 219.011 37.2684 215.027 33.1313 214.255C28.9943 213.482 25.0137 216.213 24.2405 220.355C23.4672 224.497 26.1941 228.48 30.3311 229.253C34.4681 230.025 38.4487 227.294 39.222 223.152Z" fill="#FF5252"/>
<path d="M59.5111 216.531C60.2843 212.39 57.5574 208.406 53.4204 207.634C49.2834 206.861 45.3028 209.593 44.5295 213.734C43.7562 217.876 46.4831 221.86 50.6202 222.632C54.7572 223.404 58.7378 220.673 59.5111 216.531Z" fill="#FFFF00"/>
<path d="M79.8001 209.911C80.5734 205.769 77.8465 201.785 73.7094 201.013C69.5724 200.241 65.5918 202.972 64.8186 207.114C64.0453 211.255 66.7722 215.239 70.9092 216.011C75.0462 216.784 79.0268 214.052 79.8001 209.911Z" fill="#69F0AE"/>
<path d="M247.269 206.774L47.2766 272.037L52.955 289.438L252.948 224.176L247.269 206.774Z" fill="url(#paint1_linear)"/>
<path d="M246.782 207.736L48.2385 272.525L52.9705 287.026L251.514 222.237L246.782 207.736Z" fill="#CC9966"/>
<path d="M642.419 78.6298L443.876 143.419L448.608 157.92L647.151 93.1308L642.419 78.6298Z" fill="#CC9966"/>
<path opacity="0.2" d="M642.419 78.6298L443.876 143.419L448.608 157.92L647.151 93.1308L642.419 78.6298Z" fill="black"/>
<path opacity="0.2" d="M88.5496 366.873L79.8542 369.711L82.6935 378.411L91.3888 375.574L88.5496 366.873Z" fill="#CC9966"/>
<path opacity="0.5" d="M678.383 174.397L669.688 177.234L672.527 185.935L681.222 183.097L678.383 174.397Z" fill="#CC9966"/>
<path opacity="0.2" d="M138.332 363.896C140.033 354.785 134.034 346.021 124.932 344.321C115.831 342.622 107.074 348.631 105.372 357.743C103.671 366.854 109.67 375.618 118.772 377.318C127.873 379.017 136.631 373.008 138.332 363.896Z" fill="#CC9966"/>
<path opacity="0.5" d="M657.153 194.593C658.854 185.481 652.855 176.717 643.754 175.018C634.652 173.318 625.895 179.327 624.194 188.439C622.493 197.551 628.492 206.315 637.593 208.014C646.695 209.713 655.452 203.704 657.153 194.593Z" fill="#CC9966"/>
<path opacity="0.5" d="M239.269 317.69L149.417 347.011L152.256 355.711L242.108 326.391L239.269 317.69Z" fill="#CC9966"/>
<path opacity="0.8" d="M265.22 397.47L175.368 426.791L178.207 435.491L268.059 406.171L265.22 397.47Z" fill="#CC9966"/>
<path opacity="0.2" d="M634.771 276.877L544.919 306.197L547.759 314.898L637.61 285.577L634.771 276.877Z" fill="#CC9966"/>
<path opacity="0.7" d="M414.354 437.052L324.502 466.373L327.342 475.074L417.193 445.753L414.354 437.052Z" fill="#CC9966"/>
<path opacity="0.5" d="M537.538 396.855L447.687 426.175L450.526 434.876L540.377 405.555L537.538 396.855Z" fill="#CC9966"/>
<path opacity="0.2" d="M362.452 277.492L272.601 306.813L275.44 315.514L365.292 286.193L362.452 277.492Z" fill="#CC9966"/>
<path d="M485.636 237.294L395.785 266.615L398.624 275.316L488.476 245.995L485.636 237.294Z" fill="#64FFDA"/>
<path opacity="0.2" d="M608.82 197.097L518.968 226.417L521.807 235.118L611.659 205.797L608.82 197.097Z" fill="#CC9966"/>
<path d="M142.642 417.413L97.7163 432.074L112.386 477.027L157.311 462.367L142.642 417.413Z" fill="url(#paint2_linear)"/>
<path d="M168.593 497.194L123.667 511.854L138.337 556.807L183.262 542.147L168.593 497.194Z" fill="url(#paint3_linear)"/>
<path d="M141.178 420.298L100.6 433.54L113.85 474.143L154.428 460.901L141.178 420.298Z" fill="#CC9966"/>
<path d="M167.129 500.078L126.551 513.32L139.801 553.923L180.379 540.681L167.129 500.078Z" fill="#CC9966"/>
<path opacity="0.1" d="M279.326 172.246L32.9585 252.641L34.8513 258.442L281.219 178.046L279.326 172.246Z" fill="#CC9966"/>
<path opacity="0.1" d="M680.86 224.131L673.614 226.495L722.827 377.306L730.073 374.941L680.86 224.131Z" fill="#CC9966"/>
</g>
<defs>
<linearGradient id="paint0_linear" x1="466.046" y1="546.306" x2="322.299" y2="105.103" gradientUnits="userSpaceOnUse">
<stop stop-color="#808080" stop-opacity="0.25"/>
<stop offset="0.53514" stop-color="#808080" stop-opacity="0.12"/>
<stop offset="1" stop-color="#808080" stop-opacity="0.1"/>
</linearGradient>
<linearGradient id="paint1_linear" x1="74100.3" y1="-17935.3" x2="73996" y2="-18255.6" gradientUnits="userSpaceOnUse">
<stop stop-color="#808080" stop-opacity="0.25"/>
<stop offset="0.53514" stop-color="#808080" stop-opacity="0.12"/>
<stop offset="1" stop-color="#808080" stop-opacity="0.1"/>
</linearGradient>
<linearGradient id="paint2_linear" x1="20010.7" y1="18909" x2="19317.8" y2="16782" gradientUnits="userSpaceOnUse">
<stop stop-color="#808080" stop-opacity="0.25"/>
<stop offset="0.53514" stop-color="#808080" stop-opacity="0.12"/>
<stop offset="1" stop-color="#808080" stop-opacity="0.1"/>
</linearGradient>
<linearGradient id="paint3_linear" x1="21287.3" y1="22749.3" x2="20594.3" y2="20622.3" gradientUnits="userSpaceOnUse">
<stop stop-color="#808080" stop-opacity="0.25"/>
<stop offset="0.53514" stop-color="#808080" stop-opacity="0.12"/>
<stop offset="1" stop-color="#808080" stop-opacity="0.1"/>
</linearGradient>
<clipPath id="clip0">
<rect width="788.341" height="651.413" fill="white"/>
</clipPath>
</defs>
</svg>
