<svg width="935" height="694" viewBox="0 0 935 694" fill="none" xmlns="http://www.w3.org/2000/svg">
<g clip-path="url(#clip0)">
<path d="M53.1724 693.256L38 650.773C38 650.773 54.6897 659.118 55.4483 669.738C55.4483 669.738 51.6552 616.635 44.069 605.256C44.069 605.256 56.2069 606.773 69.8621 665.945C69.8621 665.945 72.1379 597.669 51.6552 577.945C51.6552 577.945 79.7242 600.704 82 650.014V693.256H53.1724Z" fill="#F2F2F2"/>
<path d="M565.5 692.628L575.5 664.628C575.5 664.628 564.5 670.128 564 677.128C564 677.128 566.5 642.128 571.5 634.628C571.5 634.628 563.5 635.628 554.5 674.628C554.5 674.628 553 629.628 566.5 616.628C566.5 616.628 548 631.628 546.5 664.128V692.628H565.5Z" fill="#F2F2F2"/>
<path d="M405.431 692.628L397.5 670.421C397.5 670.421 406.224 674.783 406.621 680.335C406.621 680.335 404.638 652.576 400.672 646.628C400.672 646.628 407.017 647.421 414.155 678.352C414.155 678.352 415.345 642.662 404.638 632.352C404.638 632.352 419.31 644.248 420.5 670.024V692.628H405.431Z" fill="#F2F2F2"/>
<path d="M719 420H458V568H719V420Z" fill="#F2F2F2"/>
<path d="M512.5 478C525.755 478 536.5 467.254 536.5 454C536.5 440.745 525.755 430 512.5 430C499.245 430 488.5 440.745 488.5 454C488.5 467.254 499.245 478 512.5 478Z" fill="white"/>
<path d="M688.5 450H550.5V458H688.5V450Z" fill="white"/>
<path d="M688.5 470H550.5V478H688.5V470Z" fill="white"/>
<path d="M688.5 490H488.5V498H688.5V490Z" fill="white"/>
<path d="M688.5 510H488.5V518H688.5V510Z" fill="white"/>
<path d="M688.5 530H488.5V538H688.5V530Z" fill="white"/>
<path d="M688.5 550H488.5V558H688.5V550Z" fill="white"/>
<path d="M625.409 569H457V419H720V477.948H718V421H459V567H625.409V569Z" fill="#3F3D56"/>
<path d="M357 420.256H96V568.256H357V420.256Z" fill="#F2F2F2"/>
<path d="M264.41 569.256H96V419.256H359V478.204H357V421.256H98V567.256H264.41V569.256Z" fill="#3F3D56"/>
<path d="M228 540.256C253.405 540.256 274 519.661 274 494.256C274 468.851 253.405 448.256 228 448.256C202.595 448.256 182 468.851 182 494.256C182 519.661 202.595 540.256 228 540.256Z" fill="#CC9966"/>
<path d="M259 491.256H231V463.256H225V491.256H197V497.256H225V525.256H231V497.256H259V491.256Z" fill="white"/>
<path d="M281 350L542 350V202L281 202V350Z" fill="#F2F2F2"/>
<path d="M543 351H374.591V349H541V203H282V259.947H280V201H543V351Z" fill="#3F3D56"/>
<path d="M512 218H312V226H512V218Z" fill="white"/>
<path d="M512 236H312V244H512V236Z" fill="white"/>
<path d="M512 254H312V262H512V254Z" fill="white"/>
<path d="M512 272H312V280H512V272Z" fill="white"/>
<path d="M512 290H312V298H512V290Z" fill="white"/>
<path d="M512 312H469V335H512V312Z" fill="white"/>
<path d="M799 691.256H0V693.256H799V691.256Z" fill="#2F2E41"/>
<path d="M715 583C726.046 583 735 574.045 735 563C735 551.954 726.046 543 715 543C703.954 543 695 551.954 695 563C695 574.045 703.954 583 715 583Z" fill="#CC9966"/>
<path d="M728.478 561.695H716.304V549.521H713.696V561.695H701.522V564.304H713.696V576.478H716.304V564.304H728.478V561.695Z" fill="white"/>
<path d="M276 367C287.046 367 296 358.045 296 347C296 335.954 287.046 327 276 327C264.954 327 256 335.954 256 347C256 358.045 264.954 367 276 367Z" fill="#CC9966"/>
<path d="M289.478 345.695H277.304V333.521H274.696V345.695H262.522V348.304H274.696V360.478H277.304V348.304H289.478V345.695Z" fill="white"/>
</g>
<defs>
<clipPath id="clip0">
<rect width="935" height="693.256" fill="white"/>
</clipPath>
</defs>
</svg>
